<svg width="15" height="31" viewBox="0 0 15 31" fill="none" xmlns="http://www.w3.org/2000/svg">
<path d="M0.304181 9.60173C0.399779 9.70223 0.513514 9.78199 0.638827 9.83642C0.76414 9.89085 0.89855 9.91888 1.0343 9.91888C1.17006 9.91888 1.30447 9.89085 1.42978 9.83642C1.55509 9.78199 1.66883 9.70223 1.76443 9.60173L6.4948 4.66977L6.4948 29.9085C6.4948 30.1929 6.60314 30.4656 6.79599 30.6667C6.98884 30.8678 7.25041 30.9807 7.52314 30.9807C7.79587 30.9807 8.05744 30.8678 8.25029 30.6667C8.44314 30.4656 8.55148 30.1929 8.55148 29.9085L8.55148 4.69122L13.251 9.60173C13.4437 9.80143 13.7043 9.91351 13.976 9.91351C14.2477 9.91351 14.5083 9.80143 14.701 9.60173C14.8925 9.40085 15 9.12911 15 8.84586C15 8.56261 14.8925 8.29086 14.701 8.08998L8.16071 1.27101C8.07625 1.17923 7.97487 1.1062 7.86265 1.05632C7.75044 1.00643 7.62971 0.980712 7.50771 0.980712C7.38572 0.980712 7.26499 1.00643 7.15277 1.05632C7.04056 1.1062 6.93917 1.17923 6.85472 1.27101L0.304181 8.07926C0.207796 8.17893 0.131293 8.29752 0.0790859 8.42817C0.0268783 8.55882 -9.73966e-07 8.69896 -9.6778e-07 8.8405C-9.61593e-07 8.98204 0.0268783 9.12217 0.0790859 9.25283C0.131293 9.38348 0.207796 9.50206 0.304181 9.60173Z" fill="black"/>
</svg>
