<svg width="563" height="104" viewBox="0 0 563 104" fill="none" xmlns="http://www.w3.org/2000/svg">
<path d="M203.968 103.086H200.052V93.079H203.649L211.277 74.4574H215.744L222.821 93.079H226.534V103.086H222.618V96.6177H203.939V103.086H203.968ZM212.176 82.3179L208.086 93.079H218.499L213.569 79.5044L212.176 82.3179Z" fill="black"/>
<path d="M258.121 85.1317C258.121 85.3927 258.121 85.6537 258.121 85.9148C258.121 86.1758 258.121 86.4369 258.063 86.7269H240.341C240.37 87.7131 240.573 88.6413 240.95 89.4825C241.327 90.3237 241.849 91.0778 242.516 91.6869C243.154 92.296 243.937 92.8181 244.808 93.1952C245.707 93.5723 246.635 93.7463 247.621 93.7463C249.159 93.7463 250.493 93.3983 251.595 92.7021C252.697 92.006 253.538 91.1938 254.147 90.2947L257.251 92.5281C256.004 94.1814 254.583 95.3707 252.987 96.1248C251.363 96.8789 249.594 97.256 247.621 97.256C245.968 97.256 244.431 96.966 243.009 96.4149C241.588 95.8637 240.341 95.0806 239.297 94.0364C238.252 93.0212 237.44 91.7739 236.86 90.3527C236.251 88.9314 235.961 87.3361 235.961 85.5957C235.961 83.8844 236.251 82.3181 236.831 80.8678C237.411 79.4175 238.194 78.1703 239.239 77.1551C240.254 76.1109 241.472 75.3277 242.864 74.7476C244.257 74.1675 245.736 73.8774 247.36 73.8774C249.071 73.8774 250.58 74.1675 251.914 74.7476C253.248 75.3277 254.38 76.1109 255.279 77.1261C256.178 78.1413 256.903 79.3305 257.396 80.6938C257.86 82.028 258.121 83.5073 258.121 85.1317ZM253.915 83.6233C253.857 81.767 253.277 80.2297 252.146 79.0115C251.015 77.7932 249.42 77.2131 247.36 77.2131C246.403 77.2131 245.504 77.3871 244.663 77.7642C243.85 78.1123 243.125 78.6054 242.516 79.1855C241.907 79.7656 241.385 80.4617 241.008 81.2449C240.602 82.028 240.399 82.8112 240.341 83.6524H253.915V83.6233Z" fill="black"/>
<path d="M271.203 96.6177V74.4574H281.5C284.342 74.4574 286.46 75.0085 287.852 76.0817C289.244 77.1549 289.97 78.6052 289.97 80.4035C289.97 81.2447 289.825 81.9409 289.563 82.521C289.302 83.0721 288.954 83.5362 288.49 83.8842C288.026 84.2323 287.504 84.5223 286.924 84.7544C286.315 84.9864 285.706 85.1895 285.01 85.3635C285.822 85.4215 286.576 85.5666 287.301 85.7696C288.026 86.0017 288.664 86.3207 289.215 86.7558C289.767 87.1909 290.202 87.742 290.521 88.3801C290.84 89.0182 291.014 89.8014 291.014 90.7006C291.014 92.4699 290.26 93.8912 288.722 94.9644C287.214 96.0666 284.981 96.5887 282.08 96.5887H271.203V96.6177ZM280.833 84.0003C282.225 84.0003 283.356 83.7972 284.197 83.3911C285.068 82.9851 285.474 82.1439 285.474 80.8676C285.474 80.1135 285.3 79.5334 284.981 79.1273C284.662 78.7212 284.197 78.4312 283.617 78.1991C283.037 77.9671 282.341 77.8511 281.558 77.7931C280.746 77.764 279.905 77.735 278.976 77.735H275.525V84.0293H280.833V84.0003ZM275.525 93.3691H279.324C280.311 93.3691 281.239 93.3401 282.109 93.3111C282.979 93.2821 283.733 93.166 284.4 92.963C285.039 92.76 285.561 92.4409 285.938 91.9768C286.315 91.5417 286.518 90.9036 286.518 90.0914C286.518 89.2793 286.344 88.6702 285.967 88.2351C285.619 87.8 285.097 87.4809 284.458 87.2489C283.82 87.0168 283.037 86.9008 282.138 86.8718C281.239 86.8428 280.282 86.8428 279.208 86.8428H275.525V93.3691Z" fill="black"/>
<path d="M324.632 85.1317C324.632 85.3927 324.632 85.6537 324.632 85.9148C324.632 86.1758 324.632 86.4369 324.573 86.7269H306.851C306.88 87.7131 307.083 88.6413 307.46 89.4825C307.837 90.3237 308.359 91.0778 309.026 91.6869C309.665 92.296 310.448 92.8181 311.318 93.1952C312.217 93.5723 313.145 93.7463 314.131 93.7463C315.669 93.7463 317.003 93.3983 318.105 92.7021C319.207 92.006 320.049 91.1938 320.658 90.2947L323.761 92.5281C322.514 94.1814 321.093 95.3707 319.497 96.1248C317.873 96.8789 316.104 97.256 314.131 97.256C312.478 97.256 310.941 96.966 309.52 96.4149C308.098 95.8637 306.851 95.0806 305.807 94.0364C304.763 93.0212 303.95 91.7739 303.37 90.3527C302.761 88.9314 302.471 87.3361 302.471 85.5957C302.471 83.8844 302.761 82.3181 303.341 80.8678C303.921 79.4175 304.705 78.1703 305.749 77.1551C306.764 76.1109 307.982 75.3277 309.375 74.7476C310.767 74.1675 312.246 73.8774 313.87 73.8774C315.582 73.8774 317.09 74.1675 318.424 74.7476C319.759 75.3277 320.89 76.1109 321.789 77.1261C322.688 78.1413 323.413 79.3305 323.906 80.6938C324.37 82.028 324.632 83.5073 324.632 85.1317ZM320.455 83.6233C320.397 81.767 319.817 80.2297 318.685 79.0115C317.554 77.7932 315.959 77.2131 313.899 77.2131C312.942 77.2131 312.043 77.3871 311.202 77.7642C310.39 78.1123 309.665 78.6054 309.055 79.1855C308.446 79.7656 307.924 80.4617 307.547 81.2449C307.141 82.028 306.938 82.8112 306.88 83.6524H320.455V83.6233Z" fill="black"/>
<path d="M352.941 96.6177L346.327 79.6204L339.395 96.6177H334.783L344.181 74.4574H348.59L357.437 96.6177H352.941Z" fill="black"/>
<path d="M391.518 85.5375C391.518 87.2489 391.228 88.8152 390.619 90.2364C390.01 91.6577 389.169 92.905 388.096 93.9492C387.023 94.9934 385.775 95.7765 384.296 96.3566C382.846 96.9368 381.25 97.2268 379.539 97.2268C377.828 97.2268 376.261 96.9368 374.811 96.3566C373.361 95.7765 372.114 94.9934 371.04 93.9492C369.967 92.905 369.126 91.6577 368.546 90.2364C367.937 88.8152 367.647 87.2489 367.647 85.5375C367.647 83.8262 367.937 82.2599 368.546 80.8386C369.155 79.4173 369.996 78.1701 371.04 77.1259C372.114 76.0817 373.361 75.2985 374.811 74.7184C376.261 74.1383 377.828 73.8483 379.539 73.8483C381.25 73.8483 382.846 74.1383 384.296 74.7184C385.775 75.2985 387.023 76.1107 388.096 77.1259C389.169 78.1701 390.01 79.4173 390.619 80.8386C391.228 82.2599 391.518 83.8262 391.518 85.5375ZM387.139 85.5375C387.139 84.4353 386.965 83.3911 386.616 82.4339C386.268 81.4477 385.746 80.6066 385.108 79.8814C384.47 79.1563 383.658 78.5762 382.73 78.1701C381.801 77.764 380.728 77.561 379.568 77.561C378.379 77.561 377.335 77.764 376.406 78.1701C375.478 78.5762 374.695 79.1563 374.028 79.8814C373.39 80.6066 372.868 81.4477 372.52 82.4339C372.172 83.3911 371.998 84.4353 371.998 85.5375C371.998 86.6108 372.172 87.6549 372.52 88.6121C372.868 89.5693 373.361 90.4105 374.028 91.1646C374.666 91.8898 375.478 92.4699 376.406 92.905C377.335 93.3401 378.408 93.5431 379.568 93.5431C380.757 93.5431 381.801 93.3111 382.73 92.905C383.658 92.4699 384.441 91.8898 385.108 91.1646C385.746 90.4395 386.268 89.5983 386.616 88.6121C386.965 87.6549 387.139 86.6108 387.139 85.5375Z" fill="black"/>
<path d="M408.98 96.6177H404.658V74.4574H424.179V96.6177H419.857V77.9381H409.009V96.6177H408.98Z" fill="black"/>
<path d="M442.307 74.4574L451.386 85.2185L460.32 74.4574H464.032V96.6177H459.711V80.6066L451.995 90.4685H450.69L442.916 80.7806V96.6177H438.594V74.4574H442.307Z" fill="black"/>
<path d="M499.274 85.1317C499.274 85.3927 499.274 85.6537 499.274 85.9148C499.274 86.1758 499.274 86.4369 499.216 86.7269H481.494C481.523 87.7131 481.726 88.6413 482.103 89.4825C482.48 90.3237 483.002 91.0778 483.669 91.6869C484.308 92.296 485.091 92.8181 485.961 93.1952C486.86 93.5723 487.788 93.7463 488.774 93.7463C490.312 93.7463 491.646 93.3983 492.748 92.7021C493.85 92.006 494.692 91.1938 495.301 90.2947L498.404 92.5281C497.157 94.1814 495.736 95.3707 494.14 96.1248C492.516 96.8789 490.747 97.256 488.774 97.256C487.121 97.256 485.584 96.966 484.162 96.4149C482.741 95.8637 481.494 95.0806 480.45 94.0364C479.406 93.0212 478.593 91.7739 478.013 90.3527C477.404 88.9314 477.114 87.3361 477.114 85.5957C477.114 83.8844 477.404 82.3181 477.984 80.8678C478.564 79.4175 479.348 78.1703 480.392 77.1551C481.436 76.1399 482.625 75.3277 484.017 74.7476C485.41 74.1675 486.889 73.8774 488.513 73.8774C490.225 73.8774 491.733 74.1675 493.067 74.7476C494.402 75.3277 495.533 76.1109 496.432 77.1261C497.331 78.1413 498.056 79.3305 498.549 80.6938C499.042 82.028 499.274 83.5073 499.274 85.1317ZM495.098 83.6233C495.04 81.767 494.46 80.2297 493.328 79.0115C492.197 77.7932 490.602 77.2131 488.542 77.2131C487.585 77.2131 486.686 77.3871 485.845 77.7642C485.033 78.1123 484.308 78.6054 483.698 79.1855C483.089 79.7656 482.567 80.4617 482.19 81.2449C481.784 82.028 481.581 82.8112 481.523 83.6524H495.098V83.6233Z" fill="black"/>
<path d="M516.678 96.6177H512.356V74.4574H516.678V83.2171H527.903V74.4574H532.225V96.6177H527.903V86.6978H516.678V96.6177Z" fill="black"/>
<path d="M543.537 74.4574H563V77.9381H555.226V96.6177H550.905V77.9381H543.566V74.4574H543.537Z" fill="black"/>
<path d="M52.0071 15.0249H31.9642V50.0347H20.0139V15.0249H0V5.22095H52.0071V15.0249Z" fill="black"/>
<path d="M110.047 23.2627V32.6316C110.047 45.365 104.478 50.0059 92.0059 50.0059H75.3277C62.8552 50.0059 57.2861 45.336 57.2861 32.6316V23.2627C57.2861 11.0223 61.2309 5.22119 73.7033 5.22119H93.6012C106.103 5.22119 110.047 11.0223 110.047 23.2627ZM97.72 22.6536C97.72 17.9257 96.1827 14.9961 91.7449 14.9961H75.5597C71.1508 14.9961 69.5845 17.9257 69.5845 22.6536V33.2697C69.5845 39.0708 71.4409 40.26 75.6177 40.26H91.6868C95.8637 40.26 97.72 39.0708 97.72 33.2697V22.6536Z" fill="black"/>
<path d="M171.307 33.9077C171.307 39.1578 170.669 41.0431 170.321 42.1744C169.364 45.336 167.363 47.7435 163.998 48.9617C162.374 49.5418 159.618 50.0929 156.021 50.0929L119.3 50.0639V5.22115L150.249 5.19214C153.846 5.19214 156.601 5.71426 158.226 6.32338C161.619 7.54162 163.476 9.92007 164.549 13.1107C164.926 14.2129 165.535 16.1273 165.535 21.3773V22.1895H171.22L171.307 33.9077ZM148.103 14.9961H131.25V22.1315H153.585V21.3193C153.585 17.7516 152.686 14.9961 148.103 14.9961ZM159.357 33.9368L159.328 31.9354H131.25V40.26H153.875C158.4 40.26 159.357 37.5045 159.357 33.9368Z" fill="black"/>
<path d="M253.336 33.8787C253.336 39.1287 252.697 41.0141 252.349 42.1453C251.392 45.3069 249.391 47.7144 246.026 48.9326C244.402 49.5127 241.646 50.0638 238.05 50.0638L201.009 50.0348V40.2309H235.932C240.457 40.2309 241.414 37.4754 241.414 33.9077L241.385 31.9063H208.116V22.1024H235.613V21.2902C235.613 17.7225 234.714 14.967 230.131 14.967H201.009V5.19208L232.307 5.16309C235.903 5.16309 238.659 5.68519 240.283 6.2943C243.677 7.51254 245.533 9.891 246.606 13.0816C246.983 14.1838 247.592 16.0982 247.592 21.3482V22.1604H253.278L253.336 33.8787Z" fill="black"/>
<path d="M379.336 33.8787C379.336 39.1287 378.698 41.0141 378.35 42.1453C377.393 45.3069 375.391 47.7144 371.997 48.9326C370.373 49.5127 367.618 50.0638 364.021 50.0638L326.981 50.0348V40.2309H361.903C366.428 40.2309 367.386 37.4754 367.386 33.9077L367.357 31.9063H334.087V22.1024H361.584V21.2902C361.584 17.7225 360.685 14.967 356.102 14.967H326.952V5.19208L358.249 5.16309C361.845 5.16309 364.572 5.68519 366.225 6.2943C369.619 7.51254 371.475 9.891 372.578 13.0816C372.955 14.1838 373.564 16.0982 373.564 21.3482V22.1604H379.249L379.336 33.8787Z" fill="black"/>
<path d="M437.521 5.22115V38.1426C437.521 50.615 432.852 56.1841 420.147 56.1841H391.49L390.3 46.4382H418.61C424.411 46.4382 425.6 44.5818 425.6 40.405V40.26H389.401L385.485 5.19214H397.697L400.278 30.6881H425.571V5.22115H437.521Z" fill="black"/>
<path d="M502.001 5.22115V50.0349H490.051V15.0251H466.324C464.09 15.0251 462.263 16.8524 462.263 19.0859V31.9934L462.234 32.0224C462.234 35.329 462.002 37.1274 461.625 39.2738C461.045 42.5514 459.218 45.1329 457.071 46.9023C454.316 49.1937 450.545 50.0349 444.86 50.0349V40.26C449.443 39.6799 449.907 34.981 449.965 34.3138C449.965 29.4699 449.965 23.6397 449.965 22.4215C449.965 20.2751 450.139 16.7364 450.458 14.9961C451.85 7.86067 456.317 5.19214 465.251 5.19214H502.001V5.22115Z" fill="black"/>
<path d="M511.399 29.7599C511.109 27.8745 510.993 24.5389 510.993 22.3924C510.993 20.246 511.167 16.7073 511.486 14.967C512.878 7.8316 517.345 5.16309 526.279 5.16309H563V49.9478H551.05V40.2019H530.253L524.567 49.9768H510.993L517.548 38.8676C513.893 37.3013 512.124 34.3718 511.399 29.7599ZM551.05 14.967H527.352C525.119 14.967 523.291 16.7944 523.291 19.0278V25.7571C523.291 27.9905 525.119 29.8179 527.352 29.8179H551.05V14.967Z" fill="black"/>
<path d="M171.307 97.8071H0V80.2877L171.307 80.2877V97.8071Z" fill="#FCC341"/>
<path d="M321.934 32.8634C321.934 39.5347 320.657 44.3496 317.815 47.5983L317.96 47.8883C317.96 47.8883 317.815 47.8883 317.67 47.8883C314.276 51.8621 308.591 53.6895 300.382 53.6895H294.001C292.145 56.9381 290.172 61.0569 289.737 61.8981C290.172 59.0555 295.277 35.677 310.418 22.6534C299.222 21.3772 294.407 24.2197 292.551 25.3509C291.129 17.9835 292.841 9.04975 296.235 2.81353C281.79 9.48483 272.711 25.757 272.856 40.782C279.092 35.3869 287.591 34.1106 287.591 34.1106C287.591 34.1106 285.734 44.3206 287.156 53.6605H280.368C265.343 53.6605 258.701 48.1204 258.701 32.8344V21.6672C258.701 6.93233 263.516 0 278.396 0H302.355C317.235 0 321.905 6.93233 321.905 21.6672V32.8634H321.934Z" fill="#FCC341"/>
</svg>
