<svg width="42" height="42" viewBox="0 0 42 42" fill="none" xmlns="http://www.w3.org/2000/svg">
<path d="M30.3267 38.6999C26.9752 40.3654 23.5595 41 19.4737 41C9.47489 41 1 34.1022 1 23.0683C1 11.2292 9.71802 1 23.257 1C33.8656 1 41 8.01196 41 17.6096C41 26.2292 35.8766 31.2855 30.1474 31.2855C27.7046 31.2855 25.4505 29.7342 25.6347 26.2296H25.3916C23.2574 29.6196 20.4519 31.2855 16.793 31.2855C13.2582 31.2855 10.21 28.5849 10.21 24.0463C10.21 16.9194 16.1823 10.424 24.6572 10.424C27.2781 10.424 29.5965 10.941 31.1805 11.6316L29.1102 22.034C28.1966 26.4024 28.926 28.412 30.937 28.4711C34.0494 28.5274 37.5249 24.62 37.5249 17.9537C37.5249 9.6196 32.2185 3.64429 22.765 3.64429C12.8309 3.64429 4.47509 11.0563 4.47509 22.7245C4.47509 32.3221 11.1228 38.2396 20.1437 38.2396C23.6192 38.2396 26.8512 37.5517 29.3529 36.2296L30.3267 38.6999ZM26.9756 13.8731C26.3645 13.6998 25.3273 13.4707 23.9278 13.4707C18.5609 13.4707 14.2316 18.2415 14.2316 23.8148C14.2316 26.3441 15.5721 28.1829 18.2576 28.1829C21.7928 28.1829 25.0244 23.9294 25.6944 20.3681L26.9756 13.8731Z" fill="#2F3435" stroke="#2F3435" stroke-miterlimit="10"/>
</svg>
