<svg width="15" height="15" viewBox="0 0 15 15" fill="none" xmlns="http://www.w3.org/2000/svg">
<path d="M7.5 3.59888C5.38306 3.59888 3.62903 5.32267 3.62903 7.46984C3.62903 9.61702 5.35282 11.3408 7.5 11.3408C9.64717 11.3408 11.371 9.58678 11.371 7.46984C11.371 5.35291 9.61693 3.59888 7.5 3.59888ZM7.5 9.94968C6.13911 9.94968 5.02016 8.83073 5.02016 7.46984C5.02016 6.10896 6.13911 4.99001 7.5 4.99001C8.86088 4.99001 9.97984 6.10896 9.97984 7.46984C9.97984 8.83073 8.86088 9.94968 7.5 9.94968Z" fill="#7E7E7E"/>
<path d="M11.5222 4.38501C12.0065 4.38501 12.3992 3.99236 12.3992 3.508C12.3992 3.02363 12.0065 2.63098 11.5222 2.63098C11.0378 2.63098 10.6451 3.02363 10.6451 3.508C10.6451 3.99236 11.0378 4.38501 11.5222 4.38501Z" fill="#7E7E7E"/>
<path d="M13.7903 1.23992C13.004 0.423387 11.8851 0 10.6149 0H4.38508C1.75403 0 0 1.75403 0 4.38508V10.5847C0 11.8851 0.423387 13.004 1.27016 13.8206C2.08669 14.6069 3.1754 15 4.41532 15H10.5847C11.8851 15 12.9738 14.5766 13.7601 13.8206C14.5766 13.0343 15 11.9153 15 10.6149V4.38508C15 3.11492 14.5766 2.02621 13.7903 1.23992ZM13.6694 10.6149C13.6694 11.5524 13.3367 12.3085 12.7923 12.8226C12.248 13.3367 11.4919 13.6089 10.5847 13.6089H4.41532C3.50806 13.6089 2.75202 13.3367 2.20766 12.8226C1.66331 12.2782 1.39113 11.5222 1.39113 10.5847V4.38508C1.39113 3.47782 1.66331 2.72177 2.20766 2.17742C2.72177 1.66331 3.50806 1.39113 4.41532 1.39113H10.6452C11.5524 1.39113 12.3085 1.66331 12.8528 2.20766C13.3669 2.75202 13.6694 3.50806 13.6694 4.38508V10.6149Z" fill="#7E7E7E"/>
</svg>
