<svg width="17" height="17" viewBox="0 0 17 17" fill="none" xmlns="http://www.w3.org/2000/svg">
<path d="M8.49989 4.07874C6.1007 4.07874 4.11279 6.03236 4.11279 8.46583C4.11279 10.8993 6.06642 12.8529 8.49989 12.8529C10.9334 12.8529 12.887 10.865 12.887 8.46583C12.887 6.06664 10.8991 4.07874 8.49989 4.07874ZM8.49989 11.2763C6.95755 11.2763 5.68941 10.0082 5.68941 8.46583C5.68941 6.92349 6.95755 5.65535 8.49989 5.65535C10.0422 5.65535 11.3104 6.92349 11.3104 8.46583C11.3104 10.0082 10.0422 11.2763 8.49989 11.2763Z" fill="#7E7E7E"/>
<path d="M13.0584 4.96971C13.6073 4.96971 14.0524 4.52471 14.0524 3.97576C14.0524 3.42682 13.6073 2.98181 13.0584 2.98181C12.5095 2.98181 12.0645 3.42682 12.0645 3.97576C12.0645 4.52471 12.5095 4.96971 13.0584 4.96971Z" fill="#7E7E7E"/>
<path d="M15.629 1.40524C14.7379 0.479838 13.4698 0 12.0302 0H4.96976C1.9879 0 0 1.9879 0 4.96976V11.996C0 13.4698 0.479839 14.7379 1.43952 15.6633C2.36492 16.5544 3.59879 17 5.00403 17H11.996C13.4698 17 14.7036 16.5202 15.5948 15.6633C16.5202 14.7722 17 13.504 17 12.0302V4.96976C17 3.53024 16.5202 2.29637 15.629 1.40524ZM15.4919 12.0302C15.4919 13.0927 15.1149 13.9496 14.498 14.5323C13.881 15.1149 13.0242 15.4234 11.996 15.4234H5.00403C3.97581 15.4234 3.11895 15.1149 2.50202 14.5323C1.88508 13.9153 1.57661 13.0585 1.57661 11.996V4.96976C1.57661 3.94153 1.88508 3.08468 2.50202 2.46774C3.08468 1.88508 3.97581 1.57661 5.00403 1.57661H12.0645C13.0927 1.57661 13.9496 1.88508 14.5665 2.50202C15.1492 3.11895 15.4919 3.97581 15.4919 4.96976V12.0302Z" fill="#7E7E7E"/>
</svg>
