<svg width="205" height="59" viewBox="0 0 205 59" fill="none" xmlns="http://www.w3.org/2000/svg">
<path d="M2.20315 58.9824H0V53.3521H2.02365L6.31572 42.8749H8.82895L12.8109 53.3521H14.8999V58.9824H12.6967V55.3431H2.18684V58.9824H2.20315ZM6.82163 47.2975L4.52056 53.3521H10.3793L7.60498 45.7145L6.82163 47.2975Z" fill="black"/>
<path d="M32.6723 48.8806C32.6723 49.0275 32.6723 49.1744 32.6723 49.3213C32.6723 49.4681 32.6723 49.615 32.6397 49.7782H22.6684C22.6847 50.3331 22.7989 50.8553 23.0111 51.3286C23.2232 51.8019 23.517 52.2262 23.8923 52.5689C24.2514 52.9116 24.692 53.2053 25.1816 53.4175C25.6875 53.6297 26.2097 53.7276 26.7646 53.7276C27.6296 53.7276 28.3803 53.5317 29.0004 53.1401C29.6206 52.7484 30.0938 52.2914 30.4365 51.7855L32.1827 53.0421C31.481 53.9724 30.6813 54.6415 29.7837 55.0658C28.8698 55.4901 27.8743 55.7023 26.7646 55.7023C25.8344 55.7023 24.9695 55.5391 24.1698 55.229C23.3701 54.9189 22.6684 54.4783 22.0809 53.8908C21.4933 53.3196 21.0364 52.6178 20.71 51.8182C20.3673 51.0185 20.2041 50.1209 20.2041 49.1417C20.2041 48.1789 20.3673 47.2976 20.6937 46.4816C21.0201 45.6656 21.4607 44.9639 22.0482 44.3927C22.6194 43.8052 23.3048 43.3646 24.0882 43.0382C24.8715 42.7118 25.7038 42.5486 26.6177 42.5486C27.5806 42.5486 28.4292 42.7118 29.1799 43.0382C29.9306 43.3646 30.5671 43.8052 31.073 44.3764C31.5789 44.9476 31.9869 45.6167 32.2643 46.3837C32.5255 47.1344 32.6723 47.9667 32.6723 48.8806ZM30.306 48.032C30.2733 46.9875 29.9469 46.1226 29.3105 45.4372C28.674 44.7517 27.7764 44.4254 26.6177 44.4254C26.0792 44.4254 25.5733 44.5233 25.1 44.7354C24.6431 44.9313 24.2351 45.2087 23.8923 45.5351C23.5496 45.8615 23.2559 46.2532 23.0437 46.6938C22.8152 47.1344 22.701 47.5751 22.6684 48.0483H30.306V48.032Z" fill="black"/>
<path d="M40.0322 55.3431V42.8749H45.8257C47.425 42.8749 48.6164 43.1849 49.3997 43.7888C50.1831 44.3926 50.5911 45.2086 50.5911 46.2204C50.5911 46.6937 50.5095 47.0854 50.3626 47.4117C50.2157 47.7218 50.0199 47.9829 49.7588 48.1788C49.4977 48.3746 49.2039 48.5378 48.8775 48.6684C48.5348 48.7989 48.1921 48.9132 47.8004 49.0111C48.2574 49.0437 48.6817 49.1253 49.0897 49.2396C49.4976 49.3701 49.8567 49.5496 50.1668 49.7944C50.4768 50.0392 50.7216 50.3493 50.9011 50.7083C51.0807 51.0674 51.1786 51.508 51.1786 52.0139C51.1786 53.0094 50.7543 53.8091 49.8893 54.4129C49.0407 55.033 47.7841 55.3268 46.1521 55.3268H40.0322V55.3431ZM45.4504 48.2441C46.2337 48.2441 46.8702 48.1298 47.3435 47.9013C47.833 47.6729 48.0615 47.1996 48.0615 46.4815C48.0615 46.0572 47.9636 45.7308 47.7841 45.5023C47.6046 45.2739 47.3435 45.1107 47.0171 44.9801C46.6907 44.8496 46.299 44.7843 45.8584 44.7516C45.4014 44.7353 44.9281 44.719 44.4059 44.719H42.4639V48.2604H45.4504V48.2441ZM42.4639 53.5153H44.6017C45.1566 53.5153 45.6788 53.499 46.1684 53.4827C46.658 53.4664 47.0823 53.4011 47.4577 53.2868C47.8167 53.1726 48.1105 52.9931 48.3226 52.732C48.5348 52.4872 48.649 52.1281 48.649 51.6712C48.649 51.2142 48.5511 50.8715 48.339 50.6267C48.1431 50.3819 47.8494 50.2024 47.4903 50.0719C47.1313 49.9413 46.6907 49.876 46.1848 49.8597C45.6788 49.8434 45.1403 49.8434 44.5365 49.8434H42.4639V53.5153Z" fill="black"/>
<path d="M70.0928 48.8806C70.0928 49.0275 70.0928 49.1744 70.0928 49.3213C70.0928 49.4681 70.0927 49.615 70.0601 49.7782H60.0888C60.1051 50.3331 60.2193 50.8553 60.4315 51.3286C60.6436 51.8019 60.9374 52.2262 61.3128 52.5689C61.6718 52.9116 62.1124 53.2053 62.602 53.4175C63.1079 53.6297 63.6302 53.7276 64.185 53.7276C65.05 53.7276 65.8007 53.5317 66.4208 53.1401C67.041 52.7484 67.5142 52.2914 67.8569 51.7855L69.6032 53.0421C68.9014 53.9724 68.1017 54.6415 67.2042 55.0658C66.2903 55.4901 65.2948 55.7023 64.185 55.7023C63.2548 55.7023 62.3899 55.5391 61.5902 55.229C60.7905 54.9189 60.0888 54.4783 59.5013 53.8908C58.9138 53.3196 58.4568 52.6178 58.1304 51.8182C57.7877 51.0185 57.6245 50.1209 57.6245 49.1417C57.6245 48.1789 57.7877 47.2976 58.1141 46.4816C58.4405 45.6656 58.8811 44.9639 59.4686 44.3927C60.0398 43.8052 60.7252 43.3646 61.5086 43.0382C62.2919 42.7118 63.1242 42.5486 64.0381 42.5486C65.001 42.5486 65.8496 42.7118 66.6003 43.0382C67.351 43.3646 67.9875 43.8052 68.4934 44.3764C68.9993 44.9476 69.4073 45.6167 69.6848 46.3837C69.9459 47.1344 70.0928 47.9667 70.0928 48.8806ZM67.7427 48.032C67.7101 46.9875 67.3837 46.1226 66.7472 45.4372C66.1107 44.7517 65.2132 44.4254 64.0545 44.4254C63.5159 44.4254 63.01 44.5233 62.5367 44.7354C62.0798 44.9313 61.6718 45.2087 61.3291 45.5351C60.9864 45.8615 60.6926 46.2532 60.4805 46.6938C60.252 47.1344 60.1377 47.5751 60.1051 48.0483H67.7427V48.032Z" fill="black"/>
<path d="M86.0208 55.3431L82.2999 45.7798L78.3995 55.3431H75.8047L81.0923 42.8749H83.5728L88.5504 55.3431H86.0208Z" fill="black"/>
<path d="M107.727 49.1089C107.727 50.0718 107.563 50.9531 107.221 51.7527C106.878 52.5524 106.405 53.2541 105.801 53.8416C105.197 54.4292 104.495 54.8698 103.663 55.1962C102.847 55.5226 101.949 55.6858 100.986 55.6858C100.024 55.6858 99.1424 55.5226 98.3264 55.1962C97.5104 54.8698 96.8086 54.4292 96.2048 53.8416C95.601 53.2541 95.1277 52.5524 94.8013 51.7527C94.4586 50.9531 94.2954 50.0718 94.2954 49.1089C94.2954 48.1461 94.4586 47.2648 94.8013 46.4651C95.144 45.6655 95.6173 44.9637 96.2048 44.3762C96.8086 43.7887 97.5104 43.3481 98.3264 43.0217C99.1424 42.6953 100.024 42.5321 100.986 42.5321C101.949 42.5321 102.847 42.6953 103.663 43.0217C104.495 43.3481 105.197 43.805 105.801 44.3762C106.405 44.9637 106.878 45.6655 107.221 46.4651C107.563 47.2648 107.727 48.1461 107.727 49.1089ZM105.262 49.1089C105.262 48.4888 105.164 47.9013 104.968 47.3627C104.773 46.8079 104.479 46.3346 104.12 45.9266C103.761 45.5186 103.304 45.1922 102.782 44.9637C102.259 44.7353 101.656 44.621 101.003 44.621C100.334 44.621 99.7462 44.7353 99.224 44.9637C98.7017 45.1922 98.2611 45.5186 97.8857 45.9266C97.5267 46.3346 97.233 46.8079 97.0371 47.3627C96.8413 47.9013 96.7434 48.4888 96.7434 49.1089C96.7434 49.7128 96.8413 50.3003 97.0371 50.8388C97.233 51.3774 97.5104 51.8506 97.8857 52.275C98.2448 52.683 98.7017 53.0093 99.224 53.2541C99.7462 53.4989 100.35 53.6132 101.003 53.6132C101.672 53.6132 102.259 53.4826 102.782 53.2541C103.304 53.0093 103.745 52.683 104.12 52.275C104.479 51.867 104.773 51.3937 104.968 50.8388C105.164 50.3003 105.262 49.7128 105.262 49.1089Z" fill="black"/>
<path d="M117.551 55.3431H115.12V42.8749H126.103V55.3431H123.671V44.8332H117.568V55.3431H117.551Z" fill="black"/>
<path d="M136.301 42.8749L141.409 48.9295L146.436 42.8749H148.525V55.3431H146.093V46.3346L141.752 51.8833H141.018L136.644 46.4326V55.3431H134.212V42.8749H136.301Z" fill="black"/>
<path d="M168.354 48.8806C168.354 49.0275 168.354 49.1744 168.354 49.3213C168.354 49.4681 168.354 49.615 168.321 49.7782H158.35C158.366 50.3331 158.481 50.8553 158.693 51.3286C158.905 51.8019 159.199 52.2262 159.574 52.5689C159.933 52.9116 160.374 53.2053 160.863 53.4175C161.369 53.6297 161.891 53.7276 162.446 53.7276C163.311 53.7276 164.062 53.5317 164.682 53.1401C165.302 52.7484 165.775 52.2914 166.118 51.7855L167.864 53.0421C167.163 53.9724 166.363 54.6415 165.465 55.0658C164.551 55.4901 163.556 55.7023 162.446 55.7023C161.516 55.7023 160.651 55.5391 159.851 55.229C159.052 54.9189 158.35 54.4783 157.762 53.8908C157.175 53.3196 156.718 52.6178 156.392 51.8182C156.049 51.0185 155.886 50.1209 155.886 49.1417C155.886 48.1789 156.049 47.2976 156.375 46.4816C156.702 45.6656 157.142 44.9639 157.73 44.3927C158.317 43.8215 158.986 43.3646 159.77 43.0382C160.553 42.7118 161.385 42.5486 162.299 42.5486C163.262 42.5486 164.111 42.7118 164.862 43.0382C165.612 43.3646 166.249 43.8052 166.755 44.3764C167.261 44.9476 167.669 45.6167 167.946 46.3837C168.223 47.1344 168.354 47.9667 168.354 48.8806ZM166.004 48.032C165.971 46.9875 165.645 46.1226 165.008 45.4372C164.372 44.7517 163.474 44.4254 162.316 44.4254C161.777 44.4254 161.271 44.5233 160.798 44.7354C160.341 44.9313 159.933 45.2087 159.59 45.5351C159.248 45.8615 158.954 46.2532 158.742 46.6938C158.513 47.1344 158.399 47.5751 158.366 48.0483H166.004V48.032Z" fill="black"/>
<path d="M178.146 55.3431H175.714V42.8749H178.146V47.8034H184.462V42.8749H186.893V55.3431H184.462V49.7618H178.146V55.3431Z" fill="black"/>
<path d="M193.258 42.8749H204.208V44.8332H199.835V55.3431H197.403V44.8332H193.274V42.8749H193.258Z" fill="black"/>
<path d="M29.9798 20.0438C29.9798 22.9977 29.6207 24.0585 29.4249 24.6949C28.8864 26.4738 27.7603 27.8283 25.8672 28.5137C24.9533 28.8401 23.4029 29.1502 21.3793 29.1502L0.539062 29.1339V23.6178H20.188C22.7338 23.6178 23.2724 22.0675 23.2724 20.0601L23.2561 18.9341H4.53738V13.418H20.0084V12.9611C20.0084 10.9537 19.5025 9.40338 16.924 9.40338H0.539062V3.90364L18.148 3.88733C20.1716 3.88733 21.722 4.18108 22.6359 4.5238C24.5453 5.20922 25.5898 6.54743 26.1936 8.3426C26.4058 8.96274 26.7485 10.0398 26.7485 12.9937V13.4507H29.9471L29.9798 20.0438Z" fill="black"/>
<path d="M100.872 20.0438C100.872 22.9977 100.513 24.0585 100.317 24.6949C99.7784 26.4738 98.6523 27.8283 96.7429 28.5137C95.829 28.8401 94.2786 29.1502 92.255 29.1502L71.4148 29.1339V23.6178H91.0637C93.6095 23.6178 94.1481 22.0675 94.1481 20.0601L94.1318 18.9341H75.4131V13.418H90.8841V12.9611C90.8841 10.9537 90.3782 9.40338 87.7997 9.40338H71.3984V3.90364L89.0074 3.88733C91.031 3.88733 92.5651 4.18108 93.4953 4.5238C95.4047 5.20922 96.4491 6.54743 97.0693 8.3426C97.2814 8.96274 97.6242 10.0398 97.6242 12.9937V13.4507H100.823L100.872 20.0438Z" fill="black"/>
<path d="M133.609 3.91989V22.4427C133.609 29.4602 130.982 32.5936 123.834 32.5936H107.71L107.041 27.1102H122.969C126.233 27.1102 126.902 26.0657 126.902 23.7157V23.6341H106.535L104.332 3.90356H111.202L112.655 18.2486H126.885V3.91989H133.609Z" fill="black"/>
<path d="M169.888 3.91989V29.1338H163.164V9.43595H149.815C148.558 9.43595 147.53 10.4641 147.53 11.7207V18.983L147.514 18.9993C147.514 20.8597 147.383 21.8715 147.171 23.0792C146.845 24.9233 145.817 26.3758 144.609 27.3713C143.058 28.6605 140.937 29.1338 137.738 29.1338V23.6341C140.317 23.3077 140.578 20.6639 140.611 20.2885C140.611 17.5631 140.611 14.2829 140.611 13.5975C140.611 12.3898 140.708 10.3988 140.888 9.41963C141.671 5.40498 144.185 3.90356 149.211 3.90356H169.888V3.91989Z" fill="black"/>
<path d="M175.175 17.7264C175.012 16.6656 174.947 14.7889 174.947 13.5812C174.947 12.3736 175.045 10.3826 175.224 9.40338C176.008 5.38874 178.521 3.88733 183.547 3.88733H204.208V29.0849H197.484V23.6015H185.783L182.584 29.1012H174.947L178.635 22.8508C176.579 21.9695 175.583 20.3212 175.175 17.7264ZM197.484 9.40338H184.151C182.894 9.40338 181.866 10.4315 181.866 11.6881V15.4743C181.866 16.7309 182.894 17.7591 184.151 17.7591H197.484V9.40338Z" fill="black"/>
<path d="M68.5755 19.4725C68.5755 23.226 67.8574 25.9351 66.258 27.7629L66.3396 27.9261C66.3396 27.9261 66.2581 27.9261 66.1765 27.9261C64.2671 30.1619 61.0684 31.19 56.4499 31.19H52.8596C51.8151 33.0178 50.7054 35.3352 50.4606 35.8085C50.7054 34.2092 53.5777 21.0555 62.0965 13.728C55.7971 13.0099 53.0881 14.6092 52.0436 15.2457C51.2439 11.1005 52.2068 6.07403 54.1162 2.5653C45.989 6.31883 40.8809 15.4742 40.9625 23.9278C44.4713 20.8923 49.2529 20.1742 49.2529 20.1742C49.2529 20.1742 48.2085 25.9188 49.0081 31.1737H45.1893C36.7357 31.1737 32.9985 28.0567 32.9985 19.4562V13.1731C32.9985 4.88269 35.7076 0.9823 44.0796 0.9823H57.5597C65.9317 0.9823 68.5591 4.88269 68.5591 13.1731V19.4725H68.5755Z" fill="#FCC341"/>
</svg>
