<svg width="420" height="80" viewBox="0 0 420 80" fill="none" xmlns="http://www.w3.org/2000/svg">
<path d="M152.161 80.0001H149.239V72.2342H151.923L157.613 57.7828H160.946L166.225 72.2342H168.995V80.0001H166.074V74.9804H152.139V80.0001H152.161ZM158.284 63.883L155.233 72.2342H163.001L159.323 61.6996L158.284 63.883Z" fill="black"/>
<path d="M192.559 66.0666C192.559 66.2692 192.559 66.4718 192.559 66.6744C192.559 66.877 192.559 67.0795 192.516 67.3046H179.295C179.317 68.07 179.468 68.7903 179.749 69.4431C180.031 70.0959 180.42 70.6811 180.918 71.1538C181.394 71.6265 181.978 72.0317 182.627 72.3244C183.298 72.617 183.99 72.752 184.726 72.752C185.873 72.752 186.868 72.4819 187.691 71.9417C188.513 71.4015 189.14 70.7712 189.595 70.0734L191.91 71.8066C190.98 73.0897 189.919 74.0126 188.729 74.5979C187.518 75.1831 186.198 75.4757 184.726 75.4757C183.493 75.4757 182.346 75.2506 181.286 74.823C180.225 74.3953 179.295 73.7875 178.516 72.9771C177.737 72.1893 177.131 71.2214 176.698 70.1184C176.244 69.0154 176.028 67.7774 176.028 66.4268C176.028 65.0987 176.244 63.8831 176.677 62.7577C177.109 61.6322 177.694 60.6642 178.473 59.8764C179.23 59.066 180.139 58.4583 181.178 58.0081C182.216 57.5579 183.32 57.3328 184.531 57.3328C185.808 57.3328 186.933 57.5579 187.929 58.0081C188.924 58.4583 189.768 59.066 190.439 59.8539C191.109 60.6417 191.65 61.5646 192.018 62.6226C192.365 63.6581 192.559 64.8061 192.559 66.0666ZM189.422 64.8961C189.378 63.4555 188.946 62.2624 188.102 61.317C187.258 60.3716 186.068 59.9214 184.531 59.9214C183.817 59.9214 183.147 60.0565 182.519 60.3491C181.913 60.6192 181.372 61.0019 180.918 61.4521C180.463 61.9023 180.074 62.4425 179.793 63.0503C179.49 63.658 179.338 64.2658 179.295 64.9186H189.422V64.8961Z" fill="black"/>
<path d="M202.318 74.9804V57.7828H210C212.121 57.7828 213.7 58.2105 214.739 59.0434C215.777 59.8763 216.318 61.0017 216.318 62.3974C216.318 63.0501 216.21 63.5904 216.015 64.0406C215.821 64.4683 215.561 64.8284 215.215 65.0986C214.869 65.3687 214.479 65.5938 214.046 65.7738C213.592 65.9539 213.138 66.1115 212.618 66.2466C213.224 66.2916 213.787 66.4041 214.328 66.5617C214.869 66.7418 215.345 66.9894 215.756 67.327C216.167 67.6647 216.491 68.0924 216.729 68.5876C216.968 69.0828 217.097 69.6906 217.097 70.3884C217.097 71.7615 216.535 72.8645 215.388 73.6973C214.263 74.5527 212.597 74.9579 210.433 74.9579H202.318V74.9804ZM209.502 65.1886C210.541 65.1886 211.385 65.031 212.012 64.7159C212.661 64.4007 212.964 63.748 212.964 62.7575C212.964 62.1723 212.835 61.7221 212.597 61.4069C212.359 61.0918 212.012 60.8667 211.58 60.6866C211.147 60.5065 210.627 60.4165 210.043 60.3715C209.437 60.349 208.81 60.3264 208.117 60.3264H205.542V65.2111H209.502V65.1886ZM205.542 72.4593H208.377C209.113 72.4593 209.805 72.4368 210.454 72.4143C211.104 72.3918 211.666 72.3017 212.164 72.1441C212.64 71.9866 213.029 71.739 213.311 71.3788C213.592 71.0412 213.743 70.5459 213.743 69.9157C213.743 69.2854 213.614 68.8127 213.332 68.475C213.073 68.1374 212.683 67.8898 212.207 67.7097C211.731 67.5296 211.147 67.4396 210.476 67.4171C209.805 67.3946 209.091 67.3946 208.291 67.3946H205.542V72.4593Z" fill="black"/>
<path d="M242.176 66.0666C242.176 66.2692 242.176 66.4718 242.176 66.6744C242.176 66.877 242.176 67.0795 242.133 67.3046H228.912C228.934 68.07 229.085 68.7903 229.366 69.4431C229.648 70.0959 230.037 70.6811 230.535 71.1538C231.011 71.6265 231.595 72.0317 232.244 72.3244C232.915 72.617 233.607 72.752 234.343 72.752C235.49 72.752 236.485 72.4819 237.308 71.9417C238.13 71.4015 238.757 70.7712 239.212 70.0734L241.527 71.8066C240.597 73.0897 239.536 74.0126 238.346 74.5979C237.134 75.1831 235.815 75.4757 234.343 75.4757C233.11 75.4757 231.963 75.2506 230.903 74.823C229.842 74.3953 228.912 73.7875 228.133 72.9771C227.354 72.1893 226.748 71.2214 226.315 70.1184C225.861 69.0154 225.645 67.7774 225.645 66.4268C225.645 65.0987 225.861 63.8831 226.294 62.7577C226.726 61.6322 227.311 60.6642 228.09 59.8764C228.847 59.066 229.756 58.4583 230.794 58.0081C231.833 57.5579 232.937 57.3328 234.148 57.3328C235.425 57.3328 236.55 57.5579 237.546 58.0081C238.541 58.4583 239.385 59.066 240.056 59.8539C240.726 60.6417 241.267 61.5646 241.635 62.6226C241.981 63.6581 242.176 64.8061 242.176 66.0666ZM239.06 64.8961C239.017 63.4555 238.584 62.2624 237.74 61.317C236.896 60.3716 235.706 59.9214 234.17 59.9214C233.456 59.9214 232.785 60.0565 232.158 60.3491C231.552 60.6192 231.011 61.0019 230.556 61.4521C230.102 61.9023 229.713 62.4425 229.431 63.0503C229.128 63.658 228.977 64.2658 228.934 64.9186H239.06V64.8961Z" fill="black"/>
<path d="M263.295 74.9804L258.362 61.7896L253.19 74.9804H249.75L256.76 57.7828H260.049L266.649 74.9804H263.295Z" fill="black"/>
<path d="M292.074 66.3815C292.074 67.7096 291.858 68.9251 291.403 70.0281C290.949 71.1311 290.321 72.0991 289.521 72.9094C288.72 73.7198 287.79 74.3275 286.686 74.7777C285.604 75.2279 284.414 75.453 283.137 75.453C281.861 75.453 280.692 75.2279 279.61 74.7777C278.528 74.3275 277.598 73.7198 276.797 72.9094C275.997 72.0991 275.369 71.1311 274.937 70.0281C274.482 68.9251 274.266 67.7096 274.266 66.3815C274.266 65.0535 274.482 63.8379 274.937 62.7349C275.391 61.6319 276.018 60.664 276.797 59.8537C277.598 59.0433 278.528 58.4355 279.61 57.9853C280.692 57.5351 281.861 57.3101 283.137 57.3101C284.414 57.3101 285.604 57.5351 286.686 57.9853C287.79 58.4355 288.72 59.0658 289.521 59.8537C290.321 60.664 290.949 61.6319 291.403 62.7349C291.858 63.8379 292.074 65.0535 292.074 66.3815ZM288.807 66.3815C288.807 65.5262 288.677 64.7158 288.417 63.973C288.158 63.2076 287.768 62.5548 287.292 61.9921C286.816 61.4294 286.21 60.9792 285.518 60.664C284.825 60.3489 284.025 60.1913 283.159 60.1913C282.272 60.1913 281.493 60.3489 280.801 60.664C280.108 60.9792 279.524 61.4294 279.026 61.9921C278.55 62.5548 278.161 63.2076 277.901 63.973C277.641 64.7158 277.511 65.5262 277.511 66.3815C277.511 67.2144 277.641 68.0248 277.901 68.7676C278.161 69.5104 278.528 70.1632 279.026 70.7485C279.502 71.3112 280.108 71.7614 280.801 72.0991C281.493 72.4367 282.294 72.5943 283.159 72.5943C284.046 72.5943 284.825 72.4142 285.518 72.0991C286.21 71.7614 286.794 71.3112 287.292 70.7485C287.768 70.1857 288.158 69.5329 288.417 68.7676C288.677 68.0248 288.807 67.2144 288.807 66.3815Z" fill="black"/>
<path d="M305.101 74.9804H301.876V57.7828H316.439V74.9804H313.215V60.484H305.122V74.9804H305.101Z" fill="black"/>
<path d="M329.963 57.7828L336.736 66.134L343.4 57.7828H346.17V74.9804H342.946V62.5549L337.19 70.2083H336.216L330.417 62.69V74.9804H327.193V57.7828H329.963Z" fill="black"/>
<path d="M372.461 66.0666C372.461 66.2692 372.461 66.4718 372.461 66.6744C372.461 66.877 372.461 67.0795 372.417 67.3046H359.196C359.218 68.07 359.369 68.7903 359.651 69.4431C359.932 70.0959 360.321 70.6811 360.819 71.1538C361.295 71.6265 361.879 72.0317 362.529 72.3244C363.199 72.617 363.892 72.752 364.627 72.752C365.774 72.752 366.77 72.4819 367.592 71.9417C368.414 71.4015 369.042 70.7712 369.496 70.0734L371.811 71.8066C370.881 73.0897 369.821 74.0126 368.631 74.5979C367.419 75.1831 366.099 75.4757 364.627 75.4757C363.394 75.4757 362.247 75.2506 361.187 74.823C360.127 74.3953 359.196 73.7875 358.417 72.9771C357.638 72.1893 357.032 71.2214 356.6 70.1184C356.145 69.0154 355.929 67.7774 355.929 66.4268C355.929 65.0987 356.145 63.8831 356.578 62.7577C357.011 61.6322 357.595 60.6642 358.374 59.8764C359.153 59.0885 360.04 58.4583 361.079 58.0081C362.117 57.5579 363.221 57.3328 364.433 57.3328C365.709 57.3328 366.835 57.5579 367.83 58.0081C368.825 58.4583 369.669 59.066 370.34 59.8539C371.011 60.6417 371.552 61.5646 371.92 62.6226C372.287 63.6581 372.461 64.8061 372.461 66.0666ZM369.345 64.8961C369.301 63.4555 368.869 62.2624 368.025 61.317C367.181 60.3716 365.991 59.9214 364.454 59.9214C363.74 59.9214 363.069 60.0565 362.442 60.3491C361.836 60.6192 361.295 61.0019 360.841 61.4521C360.386 61.9023 359.997 62.4425 359.716 63.0503C359.413 63.658 359.261 64.2658 359.218 64.9186H369.345V64.8961Z" fill="black"/>
<path d="M385.443 74.9804H382.219V57.7828H385.443V64.5808H393.818V57.7828H397.042V74.9804H393.818V67.282H385.443V74.9804Z" fill="black"/>
<path d="M405.481 57.7828H420V60.484H414.201V74.9804H410.977V60.484H405.502V57.7828H405.481Z" fill="black"/>
<path d="M38.7975 11.6601H23.8454V38.8295H14.9304V11.6601H0V4.05176H38.7975V11.6601Z" fill="black"/>
<path d="M82.0958 18.053V25.3237C82.0958 35.2056 77.9413 38.8071 68.6368 38.8071H56.1948C46.8903 38.8071 42.7357 35.1831 42.7357 25.3237V18.053C42.7357 8.55386 45.6785 4.05188 54.983 4.05188H69.8269C79.153 4.05188 82.0958 8.55386 82.0958 18.053ZM72.8995 17.5803C72.8995 13.9112 71.7527 11.6377 68.4421 11.6377H56.3679C53.0788 11.6377 51.9104 13.9112 51.9104 17.5803V25.8189C51.9104 30.3209 53.2952 31.2438 56.4111 31.2438H68.3988C71.5147 31.2438 72.8995 30.3209 72.8995 25.8189V17.5803Z" fill="black"/>
<path d="M127.796 26.3141C127.796 30.3884 127.32 31.8515 127.06 32.7294C126.346 35.183 124.853 37.0513 122.343 37.9967C121.131 38.4469 119.076 38.8746 116.392 38.8746L88.9983 38.8521V4.05181L112.086 4.0293C114.77 4.0293 116.825 4.43449 118.037 4.9072C120.569 5.85261 121.953 7.69842 122.754 10.1745C123.035 11.0299 123.49 12.5155 123.49 16.5898V17.2201H127.731L127.796 26.3141ZM110.485 11.6376H97.9133V17.1751H114.575V16.5448C114.575 13.7761 113.904 11.6376 110.485 11.6376ZM118.881 26.3366L118.859 24.7834H97.9133V31.2438H114.791C118.167 31.2438 118.881 29.1053 118.881 26.3366Z" fill="black"/>
<path d="M188.989 26.2915C188.989 30.3658 188.513 31.8289 188.254 32.7068C187.539 35.1604 186.046 37.0287 183.536 37.9741C182.325 38.4243 180.269 38.852 177.586 38.852L149.954 38.8295V31.2212H176.006C179.382 31.2212 180.096 29.0827 180.096 26.314L180.074 24.7608H155.255V17.1525H175.768V16.5222C175.768 13.7535 175.097 11.615 171.679 11.615H149.954V4.02921L173.301 4.00671C175.985 4.00671 178.04 4.41189 179.252 4.8846C181.784 5.83001 183.169 7.67582 183.969 10.1519C184.25 11.0073 184.705 12.4929 184.705 16.5672V17.1975H188.946L188.989 26.2915Z" fill="black"/>
<path d="M282.986 26.2915C282.986 30.3658 282.51 31.8289 282.25 32.7068C281.536 35.1604 280.043 37.0287 277.511 37.9741C276.3 38.4243 274.244 38.852 271.561 38.852L243.929 38.8295V31.2212H269.981C273.357 31.2212 274.071 29.0827 274.071 26.314L274.049 24.7608H249.23V17.1525H269.743V16.5222C269.743 13.7535 269.072 11.615 265.654 11.615H243.907V4.02921L267.255 4.00671C269.938 4.00671 271.972 4.41189 273.205 4.8846C275.737 5.83001 277.122 7.67582 277.944 10.1519C278.225 11.0073 278.68 12.4929 278.68 16.5672V17.1975H282.921L282.986 26.2915Z" fill="black"/>
<path d="M326.393 4.05181V29.6005C326.393 39.2798 322.909 43.6017 313.431 43.6017H292.053L291.165 36.0384H312.284C316.612 36.0384 317.499 34.5977 317.499 31.3563V31.2438H290.495L287.573 4.0293H296.683L298.609 23.8155H317.478V4.05181H326.393Z" fill="black"/>
<path d="M374.494 4.05181V38.8296H365.579V11.6602H347.879C346.213 11.6602 344.85 13.0783 344.85 14.8115V24.8284L344.828 24.8509C344.828 27.4171 344.655 28.8127 344.374 30.4784C343.941 33.022 342.578 35.0254 340.977 36.3985C338.921 38.1768 336.108 38.8296 331.867 38.8296V31.2438C335.286 30.7936 335.632 27.147 335.675 26.6292C335.675 22.8701 335.675 18.3456 335.675 17.4002C335.675 15.7344 335.805 12.9882 336.043 11.6376C337.082 6.10022 340.414 4.0293 347.079 4.0293H374.494V4.05181Z" fill="black"/>
<path d="M381.505 23.0951C381.289 21.6319 381.203 19.0433 381.203 17.3776C381.203 15.7118 381.332 12.9656 381.57 11.615C382.609 6.07762 385.941 4.00671 392.606 4.00671H420V38.762H411.085V31.1986H395.57L391.329 38.7845H381.203L386.093 30.1632C383.366 28.9477 382.046 26.6742 381.505 23.0951ZM411.085 11.615H393.407C391.74 11.615 390.377 13.0332 390.377 14.7664V19.9887C390.377 21.722 391.74 23.1401 393.407 23.1401H411.085V11.615Z" fill="black"/>
<path d="M127.796 75.9033H0V62.3074L127.796 62.3074V75.9033Z" fill="#FCC341"/>
<path d="M240.164 25.5037C240.164 30.681 239.212 34.4176 237.091 36.9387L237.199 37.1638C237.199 37.1638 237.091 37.1638 236.983 37.1638C234.451 40.2477 230.21 41.6658 224.086 41.6658H219.326C217.941 44.1869 216.47 47.3833 216.145 48.0361C216.47 45.8301 220.278 27.6872 231.573 17.5802C223.221 16.5898 219.629 18.7957 218.244 19.6736C217.184 13.9561 218.46 7.02307 220.992 2.18344C210.216 7.36072 203.443 19.9888 203.552 31.6489C208.204 27.4621 214.544 26.4716 214.544 26.4716C214.544 26.4716 213.159 34.3951 214.219 41.6433H209.156C197.947 41.6433 192.992 37.3439 192.992 25.4812V16.8149C192.992 5.37985 196.584 0 207.684 0H225.558C236.658 0 240.142 5.37985 240.142 16.8149V25.5037H240.164Z" fill="#FCC341"/>
</svg>
