<svg width="232" height="67" viewBox="0 0 232 67" fill="none" xmlns="http://www.w3.org/2000/svg">
<path d="M2.50299 66.8758H0V60.4793H2.29906L7.17526 48.5762H10.0305L14.5544 60.4793H16.9277V66.8758H14.4247V62.7413H2.48446V66.8758H2.50299ZM7.75001 53.6007L5.13578 60.4793H11.7919L8.63997 51.8023L7.75001 53.6007Z" fill="black"/>
<path d="M37.1185 55.3992C37.1185 55.5661 37.1185 55.733 37.1185 55.8998C37.1185 56.0667 37.1185 56.2336 37.0814 56.419H25.7531C25.7716 57.0494 25.9014 57.6427 26.1424 58.1804C26.3834 58.718 26.7172 59.2001 27.1436 59.5894C27.5515 59.9788 28.0521 60.3125 28.6083 60.5536C29.1831 60.7946 29.7764 60.9058 30.4068 60.9058C31.3894 60.9058 32.2423 60.6833 32.9469 60.2384C33.6514 59.7934 34.1891 59.2743 34.5784 58.6995L36.5623 60.1271C35.765 61.1839 34.8566 61.9441 33.8368 62.4262C32.7985 62.9082 31.6676 63.1493 30.4068 63.1493C29.35 63.1493 28.3673 62.9639 27.4588 62.6116C26.5503 62.2593 25.7531 61.7587 25.0856 61.0912C24.4181 60.4423 23.899 59.6451 23.5282 58.7366C23.1388 57.8281 22.9534 56.8083 22.9534 55.6959C22.9534 54.602 23.1388 53.6008 23.5096 52.6738C23.8805 51.7467 24.3811 50.9495 25.0485 50.3006C25.6974 49.6331 26.4762 49.1325 27.3661 48.7617C28.2561 48.3909 29.2016 48.2054 30.2399 48.2054C31.3338 48.2054 32.2979 48.3909 33.1508 48.7617C34.0037 49.1325 34.7268 49.6331 35.3015 50.282C35.8763 50.9309 36.3398 51.6911 36.655 52.5625C36.9517 53.4154 37.1185 54.361 37.1185 55.3992ZM34.4301 54.4351C34.393 53.2485 34.0222 52.2659 33.2991 51.4872C32.576 50.7084 31.5563 50.3376 30.2399 50.3376C29.6281 50.3376 29.0533 50.4489 28.5156 50.6899C27.9965 50.9124 27.533 51.2276 27.1436 51.5984C26.7543 51.9692 26.4205 52.4142 26.1795 52.9148C25.9199 53.4154 25.7901 53.916 25.7531 54.4537H34.4301V54.4351Z" fill="black"/>
<path d="M45.4805 62.7413V48.5762H52.0624C53.8794 48.5762 55.2329 48.9284 56.1228 49.6144C57.0128 50.3005 57.4763 51.2275 57.4763 52.377C57.4763 52.9147 57.3836 53.3597 57.2167 53.7305C57.0499 54.0828 56.8274 54.3794 56.5307 54.6019C56.2341 54.8244 55.9004 55.0098 55.5295 55.1581C55.1402 55.3064 54.7508 55.4362 54.3058 55.5475C54.825 55.5846 55.307 55.6773 55.7706 55.807C56.2341 55.9554 56.642 56.1593 56.9943 56.4374C57.3465 56.7155 57.6246 57.0678 57.8286 57.4757C58.0325 57.8836 58.1438 58.3842 58.1438 58.959C58.1438 60.0899 57.6617 60.9984 56.6791 61.6844C55.7149 62.389 54.2873 62.7227 52.4332 62.7227H45.4805V62.7413ZM51.636 54.6761C52.5259 54.6761 53.249 54.5463 53.7867 54.2867C54.3429 54.0271 54.6025 53.4895 54.6025 52.6737C54.6025 52.1916 54.4913 51.8208 54.2873 51.5612C54.0834 51.3017 53.7867 51.1162 53.4159 50.9679C53.0451 50.8196 52.6001 50.7454 52.0995 50.7084C51.5804 50.6898 51.0427 50.6713 50.4494 50.6713H48.243V54.6946H51.636V54.6761ZM48.243 60.6647H50.6719C51.3023 60.6647 51.8956 60.6462 52.4518 60.6276C53.008 60.6091 53.4901 60.5349 53.9165 60.4051C54.3244 60.2754 54.6581 60.0714 54.8991 59.7748C55.1402 59.4966 55.27 59.0887 55.27 58.5696C55.27 58.0505 55.1587 57.6611 54.9177 57.383C54.6952 57.1049 54.3615 56.9009 53.9536 56.7526C53.5457 56.6043 53.0451 56.5301 52.4703 56.5116C51.8956 56.493 51.2837 56.493 50.5977 56.493H48.243V60.6647Z" fill="black"/>
<path d="M79.6325 55.3992C79.6325 55.5661 79.6325 55.733 79.6325 55.8998C79.6325 56.0667 79.6325 56.2336 79.5954 56.419H68.267C68.2856 57.0494 68.4154 57.6427 68.6564 58.1804C68.8974 58.718 69.2312 59.2001 69.6576 59.5894C70.0655 59.9788 70.5661 60.3125 71.1223 60.5536C71.6971 60.7946 72.2904 60.9058 72.9208 60.9058C73.9034 60.9058 74.7563 60.6833 75.4608 60.2384C76.1654 59.7934 76.7031 59.2743 77.0924 58.6995L79.0763 60.1271C78.279 61.1839 77.3705 61.9441 76.3508 62.4262C75.3125 62.9082 74.1815 63.1493 72.9208 63.1493C71.8639 63.1493 70.8813 62.9639 69.9728 62.6116C69.0643 62.2593 68.267 61.7587 67.5996 61.0912C66.9321 60.4423 66.413 59.6451 66.0422 58.7366C65.6528 57.8281 65.4674 56.8083 65.4674 55.6959C65.4674 54.602 65.6528 53.6008 66.0236 52.6738C66.3944 51.7467 66.895 50.9495 67.5625 50.3006C68.2114 49.6331 68.9901 49.1325 69.8801 48.7617C70.77 48.3909 71.7156 48.2054 72.7539 48.2054C73.8478 48.2054 74.8119 48.3909 75.6648 48.7617C76.5177 49.1325 77.2407 49.6331 77.8155 50.282C78.3903 50.9309 78.8538 51.6911 79.169 52.5625C79.4656 53.4154 79.6325 54.361 79.6325 55.3992ZM76.9626 54.4351C76.9256 53.2485 76.5547 52.2659 75.8317 51.4872C75.1086 50.7084 74.0888 50.3376 72.7724 50.3376C72.1606 50.3376 71.5858 50.4489 71.0481 50.6899C70.529 50.9124 70.0655 51.2276 69.6761 51.5984C69.2868 51.9692 68.9531 52.4142 68.712 52.9148C68.4525 53.4154 68.3227 53.916 68.2856 54.4537H76.9626V54.4351Z" fill="black"/>
<path d="M97.7281 62.7413L93.5008 51.8764L89.0696 62.7413H86.1216L92.1288 48.5762H94.947L100.602 62.7413H97.7281Z" fill="black"/>
<path d="M122.387 55.6587C122.387 56.7526 122.202 57.7538 121.813 58.6623C121.423 59.5707 120.886 60.368 120.199 61.0355C119.513 61.7029 118.716 62.2035 117.771 62.5743C116.844 62.9452 115.824 63.1306 114.73 63.1306C113.636 63.1306 112.635 62.9452 111.708 62.5743C110.781 62.2035 109.984 61.7029 109.298 61.0355C108.612 60.368 108.074 59.5707 107.703 58.6623C107.314 57.7538 107.128 56.7526 107.128 55.6587C107.128 54.5648 107.314 53.5636 107.703 52.6551C108.092 51.7466 108.63 50.9493 109.298 50.2819C109.984 49.6144 110.781 49.1138 111.708 48.743C112.635 48.3722 113.636 48.1868 114.73 48.1868C115.824 48.1868 116.844 48.3722 117.771 48.743C118.716 49.1138 119.513 49.6329 120.199 50.2819C120.886 50.9493 121.423 51.7466 121.813 52.6551C122.202 53.5636 122.387 54.5648 122.387 55.6587ZM119.588 55.6587C119.588 54.9541 119.476 54.2867 119.254 53.6748C119.031 53.0444 118.698 52.5067 118.29 52.0432C117.882 51.5797 117.363 51.2089 116.769 50.9493C116.176 50.6898 115.49 50.56 114.749 50.56C113.988 50.56 113.321 50.6898 112.728 50.9493C112.134 51.2089 111.634 51.5797 111.207 52.0432C110.799 52.5067 110.466 53.0444 110.243 53.6748C110.021 54.2867 109.909 54.9541 109.909 55.6587C109.909 56.3447 110.021 57.0121 110.243 57.624C110.466 58.2358 110.781 58.7735 111.207 59.2556C111.615 59.7191 112.134 60.0899 112.728 60.368C113.321 60.6461 114.007 60.7759 114.749 60.7759C115.509 60.7759 116.176 60.6276 116.769 60.368C117.363 60.0899 117.863 59.7191 118.29 59.2556C118.698 58.7921 119.031 58.2544 119.254 57.624C119.476 57.0121 119.588 56.3447 119.588 55.6587Z" fill="black"/>
<path d="M133.549 62.7413H130.786V48.5762H143.264V62.7413H140.502V50.8011H133.567V62.7413H133.549Z" fill="black"/>
<path d="M154.852 48.5762L160.655 55.4548L166.366 48.5762H168.739V62.7413H165.976V52.5068L161.044 58.8106H160.21L155.241 52.618V62.7413H152.479V48.5762H154.852Z" fill="black"/>
<path d="M191.266 55.3992C191.266 55.5661 191.266 55.733 191.266 55.8998C191.266 56.0667 191.266 56.2336 191.229 56.419H179.901C179.919 57.0494 180.049 57.6427 180.29 58.1804C180.531 58.718 180.865 59.2001 181.291 59.5894C181.699 59.9788 182.2 60.3125 182.756 60.5536C183.331 60.7946 183.924 60.9058 184.554 60.9058C185.537 60.9058 186.39 60.6833 187.094 60.2384C187.799 59.7934 188.337 59.2743 188.726 58.6995L190.71 60.1271C189.913 61.1839 189.004 61.9441 187.984 62.4262C186.946 62.9082 185.815 63.1493 184.554 63.1493C183.498 63.1493 182.515 62.9639 181.606 62.6116C180.698 62.2593 179.901 61.7587 179.233 61.0912C178.566 60.4423 178.047 59.6451 177.676 58.7366C177.286 57.8281 177.101 56.8083 177.101 55.6959C177.101 54.602 177.286 53.6008 177.657 52.6738C178.028 51.7467 178.529 50.9495 179.196 50.3006C179.864 49.6516 180.624 49.1325 181.514 48.7617C182.404 48.3909 183.349 48.2054 184.387 48.2054C185.481 48.2054 186.445 48.3909 187.298 48.7617C188.151 49.1325 188.874 49.6331 189.449 50.282C190.024 50.9309 190.487 51.6911 190.803 52.5625C191.118 53.4154 191.266 54.361 191.266 55.3992ZM188.596 54.4351C188.559 53.2485 188.188 52.2659 187.465 51.4872C186.742 50.7084 185.722 50.3376 184.406 50.3376C183.794 50.3376 183.219 50.4489 182.682 50.6899C182.163 50.9124 181.699 51.2276 181.31 51.5984C180.92 51.9692 180.587 52.4142 180.346 52.9148C180.086 53.4154 179.956 53.916 179.919 54.4537H188.596V54.4351Z" fill="black"/>
<path d="M202.391 62.7413H199.628V48.5762H202.391V54.1755H209.566V48.5762H212.328V62.7413H209.566V56.4004H202.391V62.7413Z" fill="black"/>
<path d="M219.559 48.5762H232V50.8011H227.031V62.7413H224.269V50.8011H219.578V48.5762H219.559Z" fill="black"/>
<path d="M34.0595 22.6379C34.0595 25.9938 33.6516 27.1989 33.4291 27.922C32.8173 29.9429 31.538 31.4818 29.3872 32.2605C28.3489 32.6313 26.5876 32.9836 24.2885 32.9836L0.612061 32.9651V26.6983H22.9351C25.8274 26.6983 26.4393 24.9369 26.4393 22.6564L26.4207 21.3771H5.15453V15.1104H22.7311V14.5912C22.7311 12.3107 22.1564 10.5493 19.2269 10.5493H0.612061V4.30112L20.6175 4.28259C22.9165 4.28259 24.6779 4.61632 25.7162 5.00568C27.8854 5.78439 29.072 7.30472 29.7581 9.3442C29.9991 10.0487 30.3884 11.2724 30.3884 14.6283V15.1474H34.0224L34.0595 22.6379Z" fill="black"/>
<path d="M114.6 22.6379C114.6 25.9938 114.192 27.1989 113.97 27.922C113.358 29.9429 112.079 31.4818 109.909 32.2605C108.871 32.6313 107.11 32.9836 104.811 32.9836L81.1341 32.9651V26.6983H103.457C106.35 26.6983 106.961 24.9369 106.961 22.6564L106.943 21.3771H85.6766V15.1104H103.253V14.5912C103.253 12.3107 102.678 10.5493 99.749 10.5493H81.1156V4.30112L101.121 4.28259C103.42 4.28259 105.163 4.61632 106.22 5.00568C108.389 5.78439 109.576 7.30472 110.28 9.3442C110.521 10.0487 110.911 11.2724 110.911 14.6283V15.1474H114.544L114.6 22.6379Z" fill="black"/>
<path d="M151.793 4.31969V25.3634C151.793 33.3359 148.808 36.8957 140.687 36.8957H122.369L121.609 30.666H139.704C143.413 30.666 144.173 29.4794 144.173 26.8096V26.7169H121.034L118.531 4.30115H126.337L127.987 20.5984H144.154V4.31969H151.793Z" fill="black"/>
<path d="M193.009 4.31969V32.9651H185.37V10.5865H170.204C168.776 10.5865 167.608 11.7545 167.608 13.1821V21.4328L167.59 21.4513C167.59 23.5649 167.441 24.7145 167.2 26.0865C166.829 28.1816 165.661 29.8317 164.289 30.9627C162.528 32.4274 160.118 32.9651 156.484 32.9651V26.7169C159.413 26.3461 159.71 23.3425 159.747 22.916C159.747 19.8197 159.747 16.093 159.747 15.3143C159.747 13.9423 159.858 11.6804 160.062 10.5679C160.952 6.0069 163.807 4.30115 169.518 4.30115H193.009V4.31969Z" fill="black"/>
<path d="M199.016 20.0051C198.831 18.8 198.757 16.6678 198.757 15.2958C198.757 13.9237 198.868 11.6618 199.072 10.5493C199.962 5.98833 202.817 4.28259 208.528 4.28259H232V32.9094H224.361V26.6798H211.068L207.434 32.928H198.757L202.947 25.8269C200.611 24.8257 199.48 22.9531 199.016 20.0051ZM224.361 10.5493H209.214C207.786 10.5493 206.618 11.7174 206.618 13.145V17.4465C206.618 18.8741 207.786 20.0422 209.214 20.0422H224.361V10.5493Z" fill="black"/>
<path d="M77.9079 21.9889C77.9079 26.2533 77.0921 29.331 75.2751 31.4076L75.3679 31.593C75.3679 31.593 75.2752 31.593 75.1824 31.593C73.0132 34.1331 69.3792 35.3011 64.1322 35.3011H60.0532C58.8666 37.3777 57.6059 40.0105 57.3277 40.5482C57.6059 38.7312 60.869 23.7874 70.5473 15.4626C63.3906 14.6468 60.3128 16.4638 59.1262 17.1869C58.2177 12.4775 59.3116 6.76699 61.4809 2.78074C52.2476 7.0451 46.4444 17.4464 46.5371 27.0505C50.5233 23.602 55.9557 22.7862 55.9557 22.7862C55.9557 22.7862 54.7691 29.3125 55.6776 35.2826H51.3391C41.735 35.2826 37.4892 31.7413 37.4892 21.9704V14.8322C37.4892 5.41352 40.567 0.9823 50.0783 0.9823H65.393C74.9043 0.9823 77.8894 5.41352 77.8894 14.8322V21.9889H77.9079Z" fill="#FCC341"/>
</svg>
