<svg width="40" height="40" viewBox="0 0 40 40" fill="none" xmlns="http://www.w3.org/2000/svg">
<path d="M11.506 9.48359H18.9999V8.51097C18.9999 3.82734 22.1472 0 25.9992 0H34.9982C35.5506 0 35.9981 0.544758 35.9981 1.21635V37.5679H39.0132C40.3289 37.5679 40.3289 40 39.0132 40C26.3376 40 13.662 40 0.986435 40C-0.328812 40 -0.328812 37.5679 0.986435 37.5679H4.0015V18.6077C4.0015 13.5868 7.37663 9.48359 11.506 9.48359ZM28.049 37.5679V32.6522H26.9486V37.5679H28.049ZM24.9483 37.5679V31.4358C24.9483 30.7642 25.3964 30.2201 25.9487 30.2201H29.0494C29.6017 30.2201 30.0492 30.7642 30.0492 31.4358V37.5679H33.9979V2.43212H25.9992C23.2519 2.43212 20.9997 5.17053 20.9997 8.51097V37.5679H24.9483ZM8.32509 23.5316H11.1258C11.6776 23.5316 12.1256 24.0758 12.1256 24.7473V28.3958C12.1256 29.0674 11.6776 29.6116 11.1258 29.6116H8.32509C7.77274 29.6116 7.32519 29.0674 7.32519 28.3958V24.7473C7.32519 24.0758 7.77274 23.5316 8.32509 23.5316ZM10.1254 25.9637H9.32546V27.1795H10.1254V25.9637ZM13.8759 23.5316H16.6766C17.2285 23.5316 17.6765 24.0758 17.6765 24.7473V28.3958C17.6765 29.0674 17.2285 29.6116 16.6766 29.6116H13.8759C13.3236 29.6116 12.8761 29.0674 12.8761 28.3958V24.7473C12.8761 24.0758 13.3236 23.5316 13.8759 23.5316ZM15.6762 25.9637H14.8763V27.1795H15.6762V25.9637ZM8.32509 16.0523H11.1258C11.6776 16.0523 12.1256 16.597 12.1256 17.2686V20.9171C12.1256 21.5881 11.6776 22.1329 11.1258 22.1329H8.32509C7.77274 22.1329 7.32519 21.5881 7.32519 20.9171V17.2686C7.32519 16.597 7.77274 16.0523 8.32509 16.0523ZM10.1254 18.4844H9.32546V19.7007H10.1254V18.4844ZM13.8759 16.0523H16.6766C17.2285 16.0523 17.6765 16.597 17.6765 17.2686V20.9171C17.6765 21.5881 17.2285 22.1329 16.6766 22.1329H13.8759C13.3236 22.1329 12.8761 21.5881 12.8761 20.9171V17.2686C12.8761 16.597 13.3236 16.0523 13.8759 16.0523ZM15.6762 18.4844H14.8763V19.7007H15.6762V18.4844ZM23.248 11.188C21.9328 11.188 21.9328 8.75588 23.248 8.75588H31.7495C33.0653 8.75588 33.0653 11.188 31.7495 11.188H23.248ZM23.248 24.565C21.9328 24.565 21.9328 22.1329 23.248 22.1329H31.7495C33.0653 22.1329 33.0653 24.565 31.7495 24.565H23.248ZM23.248 17.8765C21.9328 17.8765 21.9328 15.4444 23.248 15.4444H31.7495C33.0653 15.4444 33.0653 17.8765 31.7495 17.8765H23.248ZM18.9999 11.9157H11.506C8.48084 11.9157 6.00177 14.93 6.00177 18.6077V37.5679H18.9999V11.9157Z" fill="black"/>
</svg>
