<svg width="44" height="44" viewBox="0 0 44 44" fill="none" xmlns="http://www.w3.org/2000/svg">
<path d="M13.4339 22.1377C15.2268 25.8401 18.2206 28.8263 21.9277 30.6097C22.2011 30.7391 22.5035 30.7952 22.8052 30.7723C23.1069 30.7494 23.3974 30.6483 23.6482 30.479L29.0929 26.8419C29.3334 26.6788 29.6114 26.5792 29.9009 26.5525C30.1903 26.5259 30.4818 26.573 30.7481 26.6895L40.9406 31.067C41.2889 31.212 41.58 31.4675 41.7689 31.7941C41.9578 32.1207 42.034 32.5004 41.986 32.8747C41.6629 35.3961 40.4322 37.7134 38.5241 39.393C36.616 41.0726 34.1613 41.9994 31.6192 42C23.7637 42 16.23 38.8794 10.6753 33.3247C5.12059 27.77 2 20.2363 2 12.3808C2.00057 9.83872 2.92738 7.38399 4.60698 5.47589C6.28659 3.56779 8.60392 2.33707 11.1253 2.01402C11.4996 1.96595 11.8793 2.04224 12.2059 2.23113C12.5325 2.42003 12.788 2.71106 12.933 3.05941L17.3105 13.2737C17.4244 13.5358 17.472 13.8219 17.4492 14.1067C17.4264 14.3916 17.3339 14.6664 17.1799 14.9071L13.5428 20.4389C13.3809 20.6891 13.2858 20.9767 13.2668 21.2741C13.2477 21.5715 13.3052 21.8689 13.4339 22.1377Z" stroke="black" stroke-width="3" stroke-linecap="round" stroke-linejoin="round"/>
</svg>
